<svg width="69px" height="42px" fill="white" id="Layer_2" xmlns="http://www.w3.org/2000/svg" viewBox="0 0 244.19 149.16"><defs><style>.cls-1{stroke-width:0px;}</style></defs><g id="Layer_1-2"><path class="cls-1" d="m104.82,44.84c-5.34,9.11-13.64,16.73-23.71,19.9-10.07,3.17-21.88,1.41-29.73-5.65-7.86-7.06-10.87-18.72-8.37-28.98,2.5-10.26,10.05-18.94,19.43-23.79C71.82,1.47,82.85.28,93.28,1.91c19.8,3.11,37.82,16.95,44.97,35.67,7.15,18.72,2.62,41.62-11.83,55.51-12.6,12.11-30.7,16.59-48.1,18.19s-35.11.83-52.17,4.59c-4.78,1.05-9.64,2.54-13.33,5.75-3.69,3.21-5.93,8.53-4.27,13.13,2.14,5.94,9.49,8.19,15.8,7.97,9.61-.33,18.69-4.37,27.09-9.06,26.98-15.09,49.49-37.79,65.04-64.45,5.27-9.03,9.47-18.52,13.48-28.16,1.53-3.68,1.68-4.2,2.28-5.42,1.23-2.52,2.86-5.24,5.36-8.63C157.24.21,202.04-9.82,229.15,11.61c9.25,7.3,15.52,18.79,15.01,30.56-4.4-3.08-9.46-5.22-14.74-6.23-2.48-.48-5.37-.62-6.91,1.88-.61.98-.81,2.18-.68,3.32.32,2.86,2.19,5.02,3.86,7.21,7.79,10.18,12.28,22.84,12.57,35.65.29,12.81-3.66,25.69-11.13,36.1-9.64,13.42-24.77,22.33-40.82,26.28-25.47,6.27-49.18.02-49.18,0,0-.01,5.52.66,14.18.58,0,0,8.07-.08,15.03-.87,25.63-2.93,53.1-14.79,64.26-39.75,1.47-3.28,2.59-6.72,3.34-10.23,3.25-15.33-1.56-33.95-8.34-43.82-1.91-2.78-4.12-5.48-5.01-8.74-.89-3.25,0-7.32,3-8.86,1.43-.73,3.1-.79,4.69-.67,5.37.38,10.6,2.59,14.63,6.17-.48-10.52-6.13-20.46-14.24-27.19s-18.47-10.39-28.94-11.48c-20.01-2.08-40.72,5.44-54.97,19.59-5.63,5.6-8.85,12.53-11.91,19.74-5.4,12.73-10.87,25.79-17.95,37.66-16.06,26.91-41.05,49.68-69.82,62.28-5.01,2.19-10.15,4.08-15.4,5.62-4.84,1.42-9.88,2.55-14.91,2.06s-10.08-2.86-12.76-7.14c-3.46-5.52-2.16-13.09,1.78-18.28,3.94-5.19,10.02-8.33,16.2-10.39,16.49-5.51,34.32-4.4,51.7-4.72,17.38-.32,35.79-2.56,49.44-13.31,15.6-12.29,21.77-34.86,15.64-53.75-6.14-18.89-23.66-33.28-43.22-36.75-10.24-1.82-21.15-.8-30.4,3.95-9.25,4.75-16.66,13.44-18.81,23.61-2.15,10.18,1.45,21.62,9.72,27.94,7.83,5.98,18.86,6.8,28.15,3.51,9.29-3.29,16.95-10.24,22.63-18.29Z"/></g></svg>